<svg width="33" height="32" viewBox="0 0 33 32" fill="none" xmlns="http://www.w3.org/2000/svg">
<path d="M0.213318 3.12247C0.213318 1.51582 1.51576 0.213379 3.12241 0.213379H12.5542C14.1609 0.213379 15.4633 1.51582 15.4633 3.12247V24.5884C15.4633 28.7995 12.0495 32.2134 7.83832 32.2134C3.62715 32.2134 0.213318 28.7996 0.213318 24.5884V3.12247Z" fill="white"/>
<path d="M16.9633 18.1298C16.9633 17.454 17.512 16.9011 18.1857 16.9551C19.7756 17.0826 21.3383 17.4582 22.8166 18.0705C24.6723 18.8391 26.3584 19.9658 27.7787 21.3861C29.199 22.8064 30.3256 24.4925 31.0943 26.3482C31.7066 27.8265 32.0822 29.3892 32.2097 30.9791C32.2637 31.6528 31.7108 32.2015 31.035 32.2015H18.1869C17.5112 32.2015 16.9633 31.6536 16.9633 30.9778V18.1298Z" fill="white"/>
</svg>
